<svg xmlns="http://www.w3.org/2000/svg" xmlns:xlink="http://www.w3.org/1999/xlink" width="500" zoomAndPan="magnify" viewBox="0 0 375 374.999991" height="500" preserveAspectRatio="xMidYMid meet" version="1.0"><defs><g/><clipPath id="a44b350515"><path d="M 127 124 L 187 124 L 187 162 L 127 162 Z M 127 124 " clip-rule="nonzero"/></clipPath><clipPath id="3b6aadeb30"><path d="M 144.449219 90.113281 L 262.496094 121.894531 L 230.714844 239.941406 L 112.667969 208.160156 Z M 144.449219 90.113281 " clip-rule="nonzero"/></clipPath><clipPath id="8213edf30c"><path d="M 144.449219 90.113281 L 262.496094 121.894531 L 230.714844 239.941406 L 112.667969 208.160156 Z M 144.449219 90.113281 " clip-rule="nonzero"/></clipPath><clipPath id="4470ad1379"><path d="M 144.449219 90.113281 L 262.496094 121.894531 L 230.714844 239.941406 L 112.667969 208.160156 Z M 144.449219 90.113281 " clip-rule="nonzero"/></clipPath><clipPath id="3a262c8048"><path d="M 166 140 L 179 140 L 179 153 L 166 153 Z M 166 140 " clip-rule="nonzero"/></clipPath><clipPath id="3d8c34936e"><path d="M 144.449219 90.113281 L 262.496094 121.894531 L 230.714844 239.941406 L 112.667969 208.160156 Z M 144.449219 90.113281 " clip-rule="nonzero"/></clipPath><clipPath id="b90c2e4d90"><path d="M 144.449219 90.113281 L 262.496094 121.894531 L 230.714844 239.941406 L 112.667969 208.160156 Z M 144.449219 90.113281 " clip-rule="nonzero"/></clipPath><clipPath id="3b10410a89"><path d="M 144.449219 90.113281 L 262.496094 121.894531 L 230.714844 239.941406 L 112.667969 208.160156 Z M 144.449219 90.113281 " clip-rule="nonzero"/></clipPath><clipPath id="2f88dd55e6"><path d="M 177 99 L 218 99 L 218 158 L 177 158 Z M 177 99 " clip-rule="nonzero"/></clipPath><clipPath id="55ebda9629"><path d="M 144.449219 90.113281 L 262.496094 121.894531 L 230.714844 239.941406 L 112.667969 208.160156 Z M 144.449219 90.113281 " clip-rule="nonzero"/></clipPath><clipPath id="48002d0dda"><path d="M 144.449219 90.113281 L 262.496094 121.894531 L 230.714844 239.941406 L 112.667969 208.160156 Z M 144.449219 90.113281 " clip-rule="nonzero"/></clipPath><clipPath id="c061c53d16"><path d="M 144.449219 90.113281 L 262.496094 121.894531 L 230.714844 239.941406 L 112.667969 208.160156 Z M 144.449219 90.113281 " clip-rule="nonzero"/></clipPath><clipPath id="f40c9af2f4"><path d="M 195 133 L 208 133 L 208 146 L 195 146 Z M 195 133 " clip-rule="nonzero"/></clipPath><clipPath id="fcaede5970"><path d="M 144.449219 90.113281 L 262.496094 121.894531 L 230.714844 239.941406 L 112.667969 208.160156 Z M 144.449219 90.113281 " clip-rule="nonzero"/></clipPath><clipPath id="164babaaca"><path d="M 144.449219 90.113281 L 262.496094 121.894531 L 230.714844 239.941406 L 112.667969 208.160156 Z M 144.449219 90.113281 " clip-rule="nonzero"/></clipPath><clipPath id="c10b914fc6"><path d="M 144.449219 90.113281 L 262.496094 121.894531 L 230.714844 239.941406 L 112.667969 208.160156 Z M 144.449219 90.113281 " clip-rule="nonzero"/></clipPath><clipPath id="68b2c5327e"><path d="M 197 130 L 249 130 L 249 173 L 197 173 Z M 197 130 " clip-rule="nonzero"/></clipPath><clipPath id="ec6c145f30"><path d="M 144.449219 90.113281 L 262.496094 121.894531 L 230.714844 239.941406 L 112.667969 208.160156 Z M 144.449219 90.113281 " clip-rule="nonzero"/></clipPath><clipPath id="3180bbe907"><path d="M 144.449219 90.113281 L 262.496094 121.894531 L 230.714844 239.941406 L 112.667969 208.160156 Z M 144.449219 90.113281 " clip-rule="nonzero"/></clipPath><clipPath id="6ce5db3c90"><path d="M 144.449219 90.113281 L 262.496094 121.894531 L 230.714844 239.941406 L 112.667969 208.160156 Z M 144.449219 90.113281 " clip-rule="nonzero"/></clipPath><clipPath id="6ab68b95c6"><path d="M 211 158 L 223 158 L 223 172 L 211 172 Z M 211 158 " clip-rule="nonzero"/></clipPath><clipPath id="8045af9ce6"><path d="M 144.449219 90.113281 L 262.496094 121.894531 L 230.714844 239.941406 L 112.667969 208.160156 Z M 144.449219 90.113281 " clip-rule="nonzero"/></clipPath><clipPath id="0aeb20d9af"><path d="M 144.449219 90.113281 L 262.496094 121.894531 L 230.714844 239.941406 L 112.667969 208.160156 Z M 144.449219 90.113281 " clip-rule="nonzero"/></clipPath><clipPath id="1a41e16eaa"><path d="M 144.449219 90.113281 L 262.496094 121.894531 L 230.714844 239.941406 L 112.667969 208.160156 Z M 144.449219 90.113281 " clip-rule="nonzero"/></clipPath><clipPath id="ff50919afb"><path d="M 193 168 L 240 168 L 240 217 L 193 217 Z M 193 168 " clip-rule="nonzero"/></clipPath><clipPath id="a296ab67ce"><path d="M 144.449219 90.113281 L 262.496094 121.894531 L 230.714844 239.941406 L 112.667969 208.160156 Z M 144.449219 90.113281 " clip-rule="nonzero"/></clipPath><clipPath id="3f937756ea"><path d="M 144.449219 90.113281 L 262.496094 121.894531 L 230.714844 239.941406 L 112.667969 208.160156 Z M 144.449219 90.113281 " clip-rule="nonzero"/></clipPath><clipPath id="3c1009254f"><path d="M 144.449219 90.113281 L 262.496094 121.894531 L 230.714844 239.941406 L 112.667969 208.160156 Z M 144.449219 90.113281 " clip-rule="nonzero"/></clipPath><clipPath id="3367b4cae7"><path d="M 193.5 168.117188 L 246.273438 182.324219 L 234.507812 226.035156 L 181.730469 211.828125 Z M 193.5 168.117188 " clip-rule="nonzero"/></clipPath><clipPath id="8b52a75a24"><path d="M 193.5 168.117188 L 246.210938 182.308594 L 234.441406 226.015625 L 181.730469 211.828125 Z M 193.5 168.117188 " clip-rule="nonzero"/></clipPath><clipPath id="f310c719c9"><path d="M 190 182 L 204 182 L 204 194 L 190 194 Z M 190 182 " clip-rule="nonzero"/></clipPath><clipPath id="e351361f49"><path d="M 144.449219 90.113281 L 262.496094 121.894531 L 230.714844 239.941406 L 112.667969 208.160156 Z M 144.449219 90.113281 " clip-rule="nonzero"/></clipPath><clipPath id="54c595a5ff"><path d="M 144.449219 90.113281 L 262.496094 121.894531 L 230.714844 239.941406 L 112.667969 208.160156 Z M 144.449219 90.113281 " clip-rule="nonzero"/></clipPath><clipPath id="7151839805"><path d="M 144.449219 90.113281 L 262.496094 121.894531 L 230.714844 239.941406 L 112.667969 208.160156 Z M 144.449219 90.113281 " clip-rule="nonzero"/></clipPath><clipPath id="6731a17299"><path d="M 143 166 L 188 166 L 188 223 L 143 223 Z M 143 166 " clip-rule="nonzero"/></clipPath><clipPath id="3642155713"><path d="M 144.449219 90.113281 L 262.496094 121.894531 L 230.714844 239.941406 L 112.667969 208.160156 Z M 144.449219 90.113281 " clip-rule="nonzero"/></clipPath><clipPath id="2bbf398fd0"><path d="M 144.449219 90.113281 L 262.496094 121.894531 L 230.714844 239.941406 L 112.667969 208.160156 Z M 144.449219 90.113281 " clip-rule="nonzero"/></clipPath><clipPath id="99f1a30c68"><path d="M 144.449219 90.113281 L 262.496094 121.894531 L 230.714844 239.941406 L 112.667969 208.160156 Z M 144.449219 90.113281 " clip-rule="nonzero"/></clipPath><clipPath id="0b4170f6f8"><path d="M 150.992188 156.914062 L 187.710938 166.800781 L 172.234375 224.292969 L 135.515625 214.410156 Z M 150.992188 156.914062 " clip-rule="nonzero"/></clipPath><clipPath id="30fce04ed4"><path d="M 150.992188 156.914062 L 187.710938 166.800781 L 172.257812 224.207031 L 135.539062 214.320312 Z M 150.992188 156.914062 " clip-rule="nonzero"/></clipPath><clipPath id="eaa6077837"><path d="M 163 169 L 176 169 L 176 183 L 163 183 Z M 163 169 " clip-rule="nonzero"/></clipPath><clipPath id="494fdf3c15"><path d="M 144.449219 90.113281 L 262.496094 121.894531 L 230.714844 239.941406 L 112.667969 208.160156 Z M 144.449219 90.113281 " clip-rule="nonzero"/></clipPath><clipPath id="15befaf67c"><path d="M 144.449219 90.113281 L 262.496094 121.894531 L 230.714844 239.941406 L 112.667969 208.160156 Z M 144.449219 90.113281 " clip-rule="nonzero"/></clipPath><clipPath id="f15a64ba6b"><path d="M 144.449219 90.113281 L 262.496094 121.894531 L 230.714844 239.941406 L 112.667969 208.160156 Z M 144.449219 90.113281 " clip-rule="nonzero"/></clipPath></defs><g clip-path="url(#a44b350515)"><g clip-path="url(#3b6aadeb30)"><g clip-path="url(#8213edf30c)"><g clip-path="url(#4470ad1379)"><path fill="#85c536" d="M 186.175781 160.589844 C 186.964844 160.605469 187.109375 159.472656 186.339844 159.285156 L 164.566406 152.195312 C 164.507812 151.972656 164.441406 151.75 164.363281 151.523438 L 160.585938 140.800781 L 154.96875 124.84375 C 154.703125 124.097656 153.589844 124.355469 153.683594 125.140625 C 153.683594 125.140625 160.554688 146.441406 150.980469 152.457031 C 146.015625 155.574219 127.691406 155.367188 127.691406 155.367188 C 126.898438 155.394531 126.8125 156.53125 127.589844 156.679688 C 132.179688 157.542969 136.765625 158.425781 141.347656 159.324219 C 145.792969 160.195312 150.460938 161.644531 154.992188 161.6875 C 155.40625 161.691406 155.816406 161.6875 156.230469 161.667969 C 158.550781 161.570312 160.828125 161.097656 163.109375 160.691406 C 165.347656 160.292969 167.277344 160.261719 169.515625 160.3125 C 171.875 160.363281 174.238281 160.390625 176.597656 160.429688 C 179.789062 160.484375 182.980469 160.539062 186.175781 160.589844 " fill-opacity="1" fill-rule="nonzero"/></g></g></g></g><g clip-path="url(#3a262c8048)"><g clip-path="url(#3d8c34936e)"><g clip-path="url(#b90c2e4d90)"><g clip-path="url(#3b10410a89)"><path fill="#85c536" d="M 167.804688 142.65625 C 165.46875 145.375 165.566406 149.292969 168.027344 151.40625 C 170.492188 153.515625 174.382812 153.019531 176.722656 150.300781 C 179.0625 147.582031 178.960938 143.664062 176.5 141.554688 C 174.039062 139.441406 170.144531 139.9375 167.804688 142.65625 " fill-opacity="1" fill-rule="nonzero"/></g></g></g></g><g clip-path="url(#2f88dd55e6)"><g clip-path="url(#55ebda9629)"><g clip-path="url(#48002d0dda)"><g clip-path="url(#c061c53d16)"><path fill="#f14624" d="M 192.363281 157.28125 C 192.59375 158.039062 193.71875 157.824219 193.65625 157.035156 L 193.664062 134.179688 C 193.859375 134.054688 194.050781 133.921875 194.238281 133.777344 L 203.285156 126.886719 L 216.742188 116.636719 C 217.371094 116.160156 216.78125 115.179688 216.0625 115.511719 C 216.0625 115.511719 197.898438 128.597656 189.207031 121.359375 C 184.695312 117.605469 179.210938 100.144531 179.210938 100.144531 C 178.941406 99.402344 177.832031 99.667969 177.933594 100.453125 C 178.53125 105.074219 179.109375 109.703125 179.675781 114.328125 C 180.222656 118.820312 180.289062 123.695312 181.652344 128.015625 C 181.777344 128.40625 181.910156 128.796875 182.054688 129.179688 C 182.871094 131.355469 184.023438 133.371094 185.117188 135.414062 C 186.191406 137.417969 186.816406 139.238281 187.464844 141.378906 C 188.148438 143.636719 188.855469 145.886719 189.546875 148.136719 C 190.484375 151.1875 191.425781 154.234375 192.363281 157.28125 " fill-opacity="1" fill-rule="nonzero"/></g></g></g></g><g clip-path="url(#f40c9af2f4)"><g clip-path="url(#fcaede5970)"><g clip-path="url(#164babaaca)"><g clip-path="url(#c10b914fc6)"><path fill="#f14624" d="M 203.753906 134.316406 C 200.4375 132.933594 196.738281 134.234375 195.488281 137.222656 C 194.242188 140.210938 195.917969 143.753906 199.234375 145.136719 C 202.550781 146.519531 206.25 145.21875 207.5 142.230469 C 208.746094 139.242188 207.070312 135.699219 203.753906 134.316406 " fill-opacity="1" fill-rule="nonzero"/></g></g></g></g><g clip-path="url(#68b2c5327e)"><g clip-path="url(#ec6c145f30)"><g clip-path="url(#3180bbe907)"><g clip-path="url(#6ce5db3c90)"><path fill="#ec058e" d="M 197.433594 162.136719 C 196.785156 162.589844 197.335938 163.59375 198.066406 163.289062 L 219.84375 156.253906 C 220.023438 156.402344 220.207031 156.542969 220.40625 156.679688 L 229.769531 163.144531 L 243.707031 172.765625 C 244.359375 173.214844 245.109375 172.351562 244.570312 171.769531 C 244.570312 171.769531 226.472656 158.558594 230.671875 148.074219 C 232.851562 142.632812 247.789062 132.046875 247.789062 132.046875 C 248.414062 131.5625 247.8125 130.589844 247.097656 130.925781 C 242.878906 132.921875 238.652344 134.894531 234.417969 136.855469 C 230.3125 138.761719 225.6875 140.324219 221.996094 142.949219 C 221.660156 143.1875 221.328125 143.4375 221.007812 143.691406 C 219.191406 145.136719 217.625 146.851562 216.019531 148.519531 C 214.445312 150.15625 212.90625 151.3125 211.066406 152.589844 C 209.125 153.929688 207.203125 155.292969 205.269531 156.648438 C 202.65625 158.476562 200.046875 160.308594 197.433594 162.136719 " fill-opacity="1" fill-rule="nonzero"/></g></g></g></g><g clip-path="url(#6ab68b95c6)"><g clip-path="url(#8045af9ce6)"><g clip-path="url(#0aeb20d9af)"><g clip-path="url(#1a41e16eaa)"><path fill="#ec058e" d="M 222.839844 165.878906 C 223.132812 162.304688 220.746094 159.191406 217.511719 158.925781 C 214.277344 158.664062 211.421875 161.347656 211.132812 164.921875 C 210.84375 168.496094 213.230469 171.609375 216.460938 171.871094 C 219.695312 172.136719 222.550781 169.453125 222.839844 165.878906 " fill-opacity="1" fill-rule="nonzero"/></g></g></g></g><g clip-path="url(#ff50919afb)"><g clip-path="url(#a296ab67ce)"><g clip-path="url(#3f937756ea)"><g clip-path="url(#3c1009254f)"><g clip-path="url(#3367b4cae7)"><g clip-path="url(#8b52a75a24)"><path fill="#98198e" d="M 194.378906 168.449219 C 193.746094 167.972656 192.960938 168.804688 193.476562 169.40625 L 206.929688 187.914062 C 206.84375 188.128906 206.765625 188.351562 206.699219 188.578125 L 203.441406 199.464844 L 198.597656 215.660156 C 198.371094 216.417969 199.425781 216.863281 199.808594 216.171875 C 199.808594 216.171875 206.789062 194.917969 218.078125 195.675781 C 223.9375 196.070312 238.648438 206.988281 238.648438 206.988281 C 239.304688 207.433594 240.046875 206.5625 239.503906 205.988281 C 236.296875 202.597656 233.105469 199.191406 229.925781 195.777344 C 226.839844 192.460938 223.914062 188.554688 220.269531 185.859375 C 219.9375 185.613281 219.601562 185.375 219.257812 185.148438 C 217.316406 183.867188 215.195312 182.910156 213.113281 181.902344 C 211.0625 180.910156 209.484375 179.804688 207.699219 178.449219 C 205.820312 177.023438 203.925781 175.613281 202.039062 174.199219 C 199.484375 172.28125 196.929688 170.363281 194.378906 168.449219 " fill-opacity="1" fill-rule="nonzero"/></g></g></g></g></g></g><g clip-path="url(#f310c719c9)"><g clip-path="url(#e351361f49)"><g clip-path="url(#54c595a5ff)"><g clip-path="url(#7151839805)"><path fill="#98198e" d="M 198.691406 193.726562 C 202.183594 192.898438 204.410156 189.675781 203.660156 186.523438 C 202.910156 183.371094 199.46875 181.488281 195.972656 182.3125 C 192.476562 183.140625 190.25 186.363281 191 189.515625 C 191.753906 192.667969 195.195312 194.550781 198.691406 193.726562 " fill-opacity="1" fill-rule="nonzero"/></g></g></g></g><g clip-path="url(#6731a17299)"><g clip-path="url(#3642155713)"><g clip-path="url(#2bbf398fd0)"><g clip-path="url(#99f1a30c68)"><g clip-path="url(#0b4170f6f8)"><g clip-path="url(#30fce04ed4)"><path fill="#51ade5" d="M 187.421875 167.492188 C 187.675781 166.742188 186.640625 166.257812 186.230469 166.929688 L 172.765625 185.40625 C 172.535156 185.390625 172.300781 185.386719 172.0625 185.390625 L 160.683594 185.652344 L 143.753906 186.042969 C 142.960938 186.0625 142.863281 187.199219 143.640625 187.351562 C 143.640625 187.351562 166.050781 187.429688 168.828125 198.382812 C 170.269531 204.066406 164.425781 221.402344 164.425781 221.402344 C 164.207031 222.160156 165.265625 222.59375 165.644531 221.902344 C 167.878906 217.8125 170.136719 213.734375 172.402344 209.664062 C 174.601562 205.710938 177.421875 201.730469 178.859375 197.4375 C 178.992188 197.046875 179.113281 196.65625 179.222656 196.257812 C 179.839844 194.023438 180.09375 191.714844 180.410156 189.425781 C 180.722656 187.171875 181.285156 185.332031 182.019531 183.222656 C 182.796875 180.996094 183.550781 178.765625 184.316406 176.535156 C 185.351562 173.519531 186.386719 170.507812 187.421875 167.492188 " fill-opacity="1" fill-rule="nonzero"/></g></g></g></g></g></g><g clip-path="url(#eaa6077837)"><g clip-path="url(#494fdf3c15)"><g clip-path="url(#15befaf67c)"><g clip-path="url(#f15a64ba6b)"><path fill="#51ade5" d="M 164.675781 179.375 C 166.546875 182.4375 170.308594 183.558594 173.078125 181.875 C 175.847656 180.191406 176.578125 176.339844 174.707031 173.277344 C 172.835938 170.210938 169.074219 169.09375 166.304688 170.777344 C 163.535156 172.460938 162.804688 176.308594 164.675781 179.375 " fill-opacity="1" fill-rule="nonzero"/></g></g></g></g><g fill="#51ade5" fill-opacity="1"><g transform="translate(108.322277, 262.086487)"><g><path d="M 3.03125 0 L 3.03125 -23.09375 L 18.546875 -23.09375 L 18.515625 -19.609375 L 6.9375 -19.609375 L 6.9375 -12.9375 L 17.421875 -12.9375 L 17.421875 -9.46875 L 6.9375 -9.46875 L 6.9375 0 Z M 3.03125 0 "/></g></g></g><g fill="#51ade5" fill-opacity="1"><g transform="translate(127.297232, 262.086487)"><g><path d="M 3.03125 0 L 3.03125 -23.09375 L 6.9375 -23.09375 L 6.9375 0 Z M 3.03125 0 "/></g></g></g><g fill="#51ade5" fill-opacity="1"><g transform="translate(137.263216, 262.086487)"><g><path d="M 22.109375 0 L 17.6875 0 L 13.46875 -7 C 13.25 -6.976562 12.894531 -6.96875 12.40625 -6.96875 L 6.9375 -6.96875 L 6.9375 0 L 3.03125 0 L 3.03125 -23.09375 L 12.40625 -23.09375 C 15.351562 -23.09375 17.640625 -22.40625 19.265625 -21.03125 C 20.898438 -19.65625 21.71875 -17.71875 21.71875 -15.21875 C 21.71875 -13.363281 21.300781 -11.796875 20.46875 -10.515625 C 19.644531 -9.242188 18.460938 -8.3125 16.921875 -7.71875 Z M 6.9375 -10.46875 L 12.40625 -10.46875 C 14.207031 -10.46875 15.59375 -10.851562 16.5625 -11.625 C 17.53125 -12.40625 18.015625 -13.566406 18.015625 -15.109375 C 18.015625 -16.609375 17.53125 -17.734375 16.5625 -18.484375 C 15.59375 -19.234375 14.207031 -19.609375 12.40625 -19.609375 L 6.9375 -19.609375 Z M 6.9375 -10.46875 "/></g></g></g><g fill="#51ade5" fill-opacity="1"><g transform="translate(161.122165, 262.086487)"><g><path d="M 12.5 -23.09375 C 14.789062 -23.09375 16.84375 -22.597656 18.65625 -21.609375 C 20.476562 -20.617188 21.898438 -19.242188 22.921875 -17.484375 C 23.941406 -15.722656 24.453125 -13.742188 24.453125 -11.546875 C 24.453125 -9.347656 23.929688 -7.375 22.890625 -5.625 C 21.859375 -3.875 20.429688 -2.5 18.609375 -1.5 C 16.785156 -0.5 14.71875 0 12.40625 0 L 3.03125 0 L 3.03125 -23.09375 Z M 12.609375 -3.5 C 14.078125 -3.5 15.414062 -3.835938 16.625 -4.515625 C 17.84375 -5.203125 18.796875 -6.15625 19.484375 -7.375 C 20.179688 -8.59375 20.53125 -9.972656 20.53125 -11.515625 C 20.53125 -13.054688 20.171875 -14.441406 19.453125 -15.671875 C 18.734375 -16.898438 17.757812 -17.863281 16.53125 -18.5625 C 15.300781 -19.257812 13.9375 -19.609375 12.4375 -19.609375 L 6.9375 -19.609375 L 6.9375 -3.5 Z M 12.609375 -3.5 "/></g></g></g><g fill="#51ade5" fill-opacity="1"><g transform="translate(186.697111, 262.086487)"><g><path d="M 24.328125 0 L 20.15625 0 L 17.953125 -5.21875 L 6.296875 -5.21875 L 4.09375 0 L 0.03125 0 L 10.234375 -23.09375 L 14.21875 -23.09375 Z M 12.109375 -18.9375 L 7.75 -8.671875 L 16.46875 -8.671875 Z M 12.109375 -18.9375 "/></g></g></g><g fill="#51ade5" fill-opacity="1"><g transform="translate(211.051064, 262.086487)"><g><path d="M 25.28125 -4.25 L 30.953125 -23.09375 L 34.984375 -23.09375 L 27.15625 0 L 23.140625 0 L 17.5625 -18.15625 L 11.875 0 L 7.890625 0 L 0.09375 -23.09375 L 4.296875 -23.09375 L 10 -4.25 L 15.703125 -23.09375 L 19.53125 -23.09375 Z M 25.28125 -4.25 "/></g></g></g><g fill="#51ade5" fill-opacity="1"><g transform="translate(246.129996, 262.086487)"><g><path d="M 17.09375 -17.59375 C 15.90625 -18.3125 14.71875 -18.847656 13.53125 -19.203125 C 12.34375 -19.554688 11.273438 -19.734375 10.328125 -19.734375 C 9.179688 -19.734375 8.265625 -19.519531 7.578125 -19.09375 C 6.898438 -18.664062 6.5625 -18.054688 6.5625 -17.265625 C 6.5625 -16.554688 6.78125 -15.96875 7.21875 -15.5 C 7.664062 -15.039062 8.21875 -14.679688 8.875 -14.421875 C 9.53125 -14.160156 10.457031 -13.84375 11.65625 -13.46875 C 13.207031 -12.976562 14.472656 -12.507812 15.453125 -12.0625 C 16.429688 -11.613281 17.269531 -10.941406 17.96875 -10.046875 C 18.664062 -9.160156 19.015625 -7.988281 19.015625 -6.53125 C 19.015625 -5.164062 18.644531 -3.972656 17.90625 -2.953125 C 17.164062 -1.929688 16.132812 -1.144531 14.8125 -0.59375 C 13.5 -0.0390625 11.992188 0.234375 10.296875 0.234375 C 8.515625 0.234375 6.796875 -0.09375 5.140625 -0.75 C 3.492188 -1.414062 2.066406 -2.320312 0.859375 -3.46875 L 2.546875 -6.828125 C 3.710938 -5.753906 4.992188 -4.914062 6.390625 -4.3125 C 7.785156 -3.707031 9.109375 -3.40625 10.359375 -3.40625 C 11.703125 -3.40625 12.757812 -3.660156 13.53125 -4.171875 C 14.300781 -4.691406 14.6875 -5.398438 14.6875 -6.296875 C 14.6875 -7.023438 14.457031 -7.617188 14 -8.078125 C 13.550781 -8.546875 12.984375 -8.914062 12.296875 -9.1875 C 11.617188 -9.46875 10.695312 -9.78125 9.53125 -10.125 C 7.945312 -10.59375 6.675781 -11.046875 5.71875 -11.484375 C 4.769531 -11.921875 3.945312 -12.578125 3.25 -13.453125 C 2.5625 -14.335938 2.21875 -15.492188 2.21875 -16.921875 C 2.21875 -18.222656 2.566406 -19.363281 3.265625 -20.34375 C 3.972656 -21.320312 4.960938 -22.082031 6.234375 -22.625 C 7.515625 -23.164062 8.976562 -23.4375 10.625 -23.4375 C 12.070312 -23.4375 13.5 -23.210938 14.90625 -22.765625 C 16.320312 -22.328125 17.59375 -21.742188 18.71875 -21.015625 Z M 17.09375 -17.59375 "/></g></g></g><g fill="#98198e" fill-opacity="1"><g transform="translate(127.866323, 281.586486)"><g><path d="M 0.046875 0 L 0.046875 -0.84375 L 1.109375 -0.84375 L 4.1875 -8.8125 L 5.578125 -8.8125 L 8.71875 -0.84375 L 9.703125 -0.84375 L 9.703125 0 L 5.90625 0 L 5.90625 -0.84375 L 7.21875 -0.84375 L 6.40625 -2.953125 L 3.015625 -2.953125 L 2.25 -0.84375 L 3.71875 -0.84375 L 3.71875 0 Z M 3.28125 -3.703125 L 6.109375 -3.703125 L 4.65625 -7.671875 Z M 3.28125 -3.703125 "/></g></g></g><g fill="#98198e" fill-opacity="1"><g transform="translate(140.556604, 281.586486)"><g><path d="M 3.96875 0.15625 C 3.5 0.15625 3.054688 0.113281 2.640625 0.03125 C 2.222656 -0.0507812 1.835938 -0.179688 1.484375 -0.359375 C 1.128906 -0.523438 0.847656 -0.75 0.640625 -1.03125 C 0.441406 -1.3125 0.34375 -1.625 0.34375 -1.96875 C 0.34375 -2.175781 0.390625 -2.363281 0.484375 -2.53125 C 0.585938 -2.707031 0.71875 -2.84375 0.875 -2.9375 C 1.039062 -3.03125 1.21875 -3.078125 1.40625 -3.078125 C 1.570312 -3.078125 1.726562 -3.03125 1.875 -2.9375 C 2.019531 -2.851562 2.132812 -2.734375 2.21875 -2.578125 C 2.300781 -2.429688 2.34375 -2.273438 2.34375 -2.109375 C 2.34375 -1.859375 2.269531 -1.660156 2.125 -1.515625 C 1.976562 -1.378906 1.773438 -1.296875 1.515625 -1.265625 C 1.796875 -1.066406 2.109375 -0.914062 2.453125 -0.8125 C 2.804688 -0.707031 3.242188 -0.65625 3.765625 -0.65625 C 4.640625 -0.65625 5.273438 -0.867188 5.671875 -1.296875 C 5.878906 -1.523438 5.984375 -1.800781 5.984375 -2.125 C 5.984375 -2.488281 5.863281 -2.785156 5.625 -3.015625 C 5.519531 -3.117188 5.363281 -3.21875 5.15625 -3.3125 C 4.957031 -3.40625 4.734375 -3.488281 4.484375 -3.5625 C 4.203125 -3.644531 3.90625 -3.722656 3.59375 -3.796875 C 2.8125 -3.992188 2.1875 -4.222656 1.71875 -4.484375 C 1.25 -4.742188 0.921875 -5.035156 0.734375 -5.359375 C 0.546875 -5.679688 0.453125 -6.066406 0.453125 -6.515625 C 0.453125 -6.984375 0.59375 -7.40625 0.875 -7.78125 C 1.164062 -8.164062 1.566406 -8.460938 2.078125 -8.671875 C 2.585938 -8.890625 3.171875 -9 3.828125 -9 C 4.390625 -9 4.953125 -8.910156 5.515625 -8.734375 C 5.835938 -8.628906 6.113281 -8.503906 6.34375 -8.359375 C 6.570312 -8.210938 6.757812 -8.03125 6.90625 -7.8125 C 7.050781 -7.582031 7.125 -7.332031 7.125 -7.0625 C 7.125 -6.71875 7.035156 -6.4375 6.859375 -6.21875 C 6.679688 -6 6.441406 -5.890625 6.140625 -5.890625 C 5.960938 -5.890625 5.796875 -5.921875 5.640625 -5.984375 C 5.492188 -6.054688 5.375 -6.15625 5.28125 -6.28125 C 5.195312 -6.414062 5.15625 -6.5625 5.15625 -6.71875 C 5.15625 -7.019531 5.226562 -7.25 5.375 -7.40625 C 5.53125 -7.5625 5.722656 -7.640625 5.953125 -7.640625 C 5.492188 -8.003906 4.832031 -8.1875 3.96875 -8.1875 C 3.59375 -8.1875 3.25 -8.128906 2.9375 -8.015625 C 2.625 -7.898438 2.363281 -7.738281 2.15625 -7.53125 C 1.957031 -7.3125 1.859375 -7.050781 1.859375 -6.75 C 1.859375 -6.601562 1.867188 -6.476562 1.890625 -6.375 C 1.921875 -6.28125 1.976562 -6.175781 2.0625 -6.0625 C 2.144531 -5.945312 2.257812 -5.84375 2.40625 -5.75 C 2.550781 -5.65625 2.75 -5.5625 3 -5.46875 C 3.25 -5.363281 3.554688 -5.273438 3.921875 -5.203125 C 5.046875 -4.941406 5.882812 -4.640625 6.4375 -4.296875 C 6.695312 -4.128906 6.90625 -3.9375 7.0625 -3.71875 C 7.21875 -3.507812 7.332031 -3.296875 7.40625 -3.078125 C 7.457031 -2.859375 7.484375 -2.609375 7.484375 -2.328125 C 7.484375 -1.804688 7.347656 -1.359375 7.078125 -0.984375 C 6.804688 -0.617188 6.40625 -0.335938 5.875 -0.140625 C 5.351562 0.0546875 4.71875 0.15625 3.96875 0.15625 Z M 3.96875 0.15625 "/></g></g></g><g fill="#98198e" fill-opacity="1"><g transform="translate(151.342589, 281.586486)"><g><path d="M 3.96875 0.15625 C 3.5 0.15625 3.054688 0.113281 2.640625 0.03125 C 2.222656 -0.0507812 1.835938 -0.179688 1.484375 -0.359375 C 1.128906 -0.523438 0.847656 -0.75 0.640625 -1.03125 C 0.441406 -1.3125 0.34375 -1.625 0.34375 -1.96875 C 0.34375 -2.175781 0.390625 -2.363281 0.484375 -2.53125 C 0.585938 -2.707031 0.71875 -2.84375 0.875 -2.9375 C 1.039062 -3.03125 1.21875 -3.078125 1.40625 -3.078125 C 1.570312 -3.078125 1.726562 -3.03125 1.875 -2.9375 C 2.019531 -2.851562 2.132812 -2.734375 2.21875 -2.578125 C 2.300781 -2.429688 2.34375 -2.273438 2.34375 -2.109375 C 2.34375 -1.859375 2.269531 -1.660156 2.125 -1.515625 C 1.976562 -1.378906 1.773438 -1.296875 1.515625 -1.265625 C 1.796875 -1.066406 2.109375 -0.914062 2.453125 -0.8125 C 2.804688 -0.707031 3.242188 -0.65625 3.765625 -0.65625 C 4.640625 -0.65625 5.273438 -0.867188 5.671875 -1.296875 C 5.878906 -1.523438 5.984375 -1.800781 5.984375 -2.125 C 5.984375 -2.488281 5.863281 -2.785156 5.625 -3.015625 C 5.519531 -3.117188 5.363281 -3.21875 5.15625 -3.3125 C 4.957031 -3.40625 4.734375 -3.488281 4.484375 -3.5625 C 4.203125 -3.644531 3.90625 -3.722656 3.59375 -3.796875 C 2.8125 -3.992188 2.1875 -4.222656 1.71875 -4.484375 C 1.25 -4.742188 0.921875 -5.035156 0.734375 -5.359375 C 0.546875 -5.679688 0.453125 -6.066406 0.453125 -6.515625 C 0.453125 -6.984375 0.59375 -7.40625 0.875 -7.78125 C 1.164062 -8.164062 1.566406 -8.460938 2.078125 -8.671875 C 2.585938 -8.890625 3.171875 -9 3.828125 -9 C 4.390625 -9 4.953125 -8.910156 5.515625 -8.734375 C 5.835938 -8.628906 6.113281 -8.503906 6.34375 -8.359375 C 6.570312 -8.210938 6.757812 -8.03125 6.90625 -7.8125 C 7.050781 -7.582031 7.125 -7.332031 7.125 -7.0625 C 7.125 -6.71875 7.035156 -6.4375 6.859375 -6.21875 C 6.679688 -6 6.441406 -5.890625 6.140625 -5.890625 C 5.960938 -5.890625 5.796875 -5.921875 5.640625 -5.984375 C 5.492188 -6.054688 5.375 -6.15625 5.28125 -6.28125 C 5.195312 -6.414062 5.15625 -6.5625 5.15625 -6.71875 C 5.15625 -7.019531 5.226562 -7.25 5.375 -7.40625 C 5.53125 -7.5625 5.722656 -7.640625 5.953125 -7.640625 C 5.492188 -8.003906 4.832031 -8.1875 3.96875 -8.1875 C 3.59375 -8.1875 3.25 -8.128906 2.9375 -8.015625 C 2.625 -7.898438 2.363281 -7.738281 2.15625 -7.53125 C 1.957031 -7.3125 1.859375 -7.050781 1.859375 -6.75 C 1.859375 -6.601562 1.867188 -6.476562 1.890625 -6.375 C 1.921875 -6.28125 1.976562 -6.175781 2.0625 -6.0625 C 2.144531 -5.945312 2.257812 -5.84375 2.40625 -5.75 C 2.550781 -5.65625 2.75 -5.5625 3 -5.46875 C 3.25 -5.363281 3.554688 -5.273438 3.921875 -5.203125 C 5.046875 -4.941406 5.882812 -4.640625 6.4375 -4.296875 C 6.695312 -4.128906 6.90625 -3.9375 7.0625 -3.71875 C 7.21875 -3.507812 7.332031 -3.296875 7.40625 -3.078125 C 7.457031 -2.859375 7.484375 -2.609375 7.484375 -2.328125 C 7.484375 -1.804688 7.347656 -1.359375 7.078125 -0.984375 C 6.804688 -0.617188 6.40625 -0.335938 5.875 -0.140625 C 5.351562 0.0546875 4.71875 0.15625 3.96875 0.15625 Z M 3.96875 0.15625 "/></g></g></g><g fill="#98198e" fill-opacity="1"><g transform="translate(162.128573, 281.586486)"><g><path d="M 4.65625 0.15625 C 4.125 0.15625 3.628906 0.0703125 3.171875 -0.09375 C 2.710938 -0.269531 2.316406 -0.503906 1.984375 -0.796875 C 1.660156 -1.097656 1.382812 -1.441406 1.15625 -1.828125 C 0.925781 -2.222656 0.757812 -2.640625 0.65625 -3.078125 C 0.550781 -3.515625 0.5 -3.960938 0.5 -4.421875 C 0.5 -5.367188 0.71875 -6.226562 1.15625 -7 C 1.382812 -7.40625 1.660156 -7.753906 1.984375 -8.046875 C 2.316406 -8.335938 2.707031 -8.570312 3.15625 -8.75 C 3.625 -8.914062 4.125 -9 4.65625 -9 C 5.1875 -9 5.679688 -8.910156 6.140625 -8.734375 C 6.609375 -8.566406 7.007812 -8.332031 7.34375 -8.03125 C 7.65625 -7.738281 7.925781 -7.394531 8.15625 -7 C 8.382812 -6.613281 8.550781 -6.203125 8.65625 -5.765625 C 8.757812 -5.328125 8.8125 -4.878906 8.8125 -4.421875 C 8.8125 -3.460938 8.59375 -2.597656 8.15625 -1.828125 C 7.925781 -1.421875 7.644531 -1.070312 7.3125 -0.78125 C 6.988281 -0.5 6.609375 -0.273438 6.171875 -0.109375 C 5.703125 0.0664062 5.195312 0.15625 4.65625 0.15625 Z M 4.65625 -0.65625 C 5.070312 -0.65625 5.453125 -0.757812 5.796875 -0.96875 C 6.140625 -1.1875 6.421875 -1.472656 6.640625 -1.828125 C 6.859375 -2.179688 7.023438 -2.578125 7.140625 -3.015625 C 7.253906 -3.460938 7.3125 -3.925781 7.3125 -4.40625 C 7.3125 -4.789062 7.273438 -5.164062 7.203125 -5.53125 C 7.140625 -5.894531 7.03125 -6.234375 6.875 -6.546875 C 6.550781 -7.234375 6.125 -7.707031 5.59375 -7.96875 C 5.3125 -8.113281 5 -8.1875 4.65625 -8.1875 C 4.25 -8.1875 3.875 -8.078125 3.53125 -7.859375 C 3.1875 -7.648438 2.898438 -7.367188 2.671875 -7.015625 C 2.453125 -6.648438 2.285156 -6.242188 2.171875 -5.796875 C 2.054688 -5.359375 2 -4.90625 2 -4.4375 C 2 -3.625 2.144531 -2.90625 2.4375 -2.28125 C 2.59375 -1.945312 2.773438 -1.660156 2.984375 -1.421875 C 3.191406 -1.191406 3.4375 -1.007812 3.71875 -0.875 C 4.007812 -0.726562 4.320312 -0.65625 4.65625 -0.65625 Z M 4.65625 -0.65625 "/></g></g></g><g fill="#98198e" fill-opacity="1"><g transform="translate(174.39112, 281.586486)"><g><path d="M 4.65625 0.15625 C 4.0625 0.15625 3.5 0.0351562 2.96875 -0.203125 C 2.445312 -0.453125 2.003906 -0.789062 1.640625 -1.21875 C 1.273438 -1.644531 0.992188 -2.140625 0.796875 -2.703125 C 0.597656 -3.273438 0.5 -3.875 0.5 -4.5 C 0.5 -5.144531 0.597656 -5.742188 0.796875 -6.296875 C 1.003906 -6.847656 1.296875 -7.328125 1.671875 -7.734375 C 2.046875 -8.128906 2.5 -8.4375 3.03125 -8.65625 C 3.570312 -8.882812 4.15625 -9 4.78125 -9 C 5.332031 -9 5.851562 -8.882812 6.34375 -8.65625 C 6.832031 -8.425781 7.234375 -8.101562 7.546875 -7.6875 C 7.867188 -7.269531 8.03125 -6.800781 8.03125 -6.28125 C 8.03125 -6.101562 7.976562 -5.929688 7.875 -5.765625 C 7.78125 -5.609375 7.644531 -5.476562 7.46875 -5.375 C 7.300781 -5.269531 7.101562 -5.21875 6.875 -5.21875 C 6.570312 -5.21875 6.332031 -5.304688 6.15625 -5.484375 C 5.976562 -5.660156 5.890625 -5.894531 5.890625 -6.1875 C 5.890625 -6.382812 5.941406 -6.550781 6.046875 -6.6875 C 6.148438 -6.832031 6.28125 -6.941406 6.4375 -7.015625 C 6.601562 -7.085938 6.765625 -7.125 6.921875 -7.125 C 6.722656 -7.4375 6.429688 -7.691406 6.046875 -7.890625 C 5.671875 -8.085938 5.25 -8.1875 4.78125 -8.1875 C 4.25 -8.1875 3.773438 -8.03125 3.359375 -7.71875 C 2.941406 -7.414062 2.617188 -6.984375 2.390625 -6.421875 C 2.160156 -5.859375 2.046875 -5.210938 2.046875 -4.484375 C 2.046875 -4.046875 2.113281 -3.617188 2.25 -3.203125 C 2.382812 -2.785156 2.570312 -2.40625 2.8125 -2.0625 C 3.070312 -1.71875 3.394531 -1.441406 3.78125 -1.234375 C 4.164062 -1.023438 4.582031 -0.921875 5.03125 -0.921875 C 5.363281 -0.921875 5.679688 -0.984375 5.984375 -1.109375 C 6.285156 -1.242188 6.546875 -1.414062 6.765625 -1.625 C 6.972656 -1.832031 7.144531 -2.054688 7.28125 -2.296875 C 7.425781 -2.546875 7.53125 -2.800781 7.59375 -3.0625 L 8.375 -2.671875 C 8.164062 -1.765625 7.742188 -1.066406 7.109375 -0.578125 C 6.472656 -0.0859375 5.65625 0.15625 4.65625 0.15625 Z M 4.65625 0.15625 "/></g></g></g><g fill="#98198e" fill-opacity="1"><g transform="translate(185.821632, 281.586486)"><g><path d="M 0.171875 0 L 0.171875 -0.84375 L 1.609375 -0.84375 L 1.609375 -7.984375 L 0.171875 -7.984375 L 0.171875 -8.8125 L 4.328125 -8.8125 L 4.328125 -7.984375 L 2.984375 -7.984375 L 2.984375 -0.84375 L 4.328125 -0.84375 L 4.328125 0 Z M 0.171875 0 "/></g></g></g><g fill="#98198e" fill-opacity="1"><g transform="translate(193.279489, 281.586486)"><g><path d="M 0.046875 0 L 0.046875 -0.84375 L 1.109375 -0.84375 L 4.1875 -8.8125 L 5.578125 -8.8125 L 8.71875 -0.84375 L 9.703125 -0.84375 L 9.703125 0 L 5.90625 0 L 5.90625 -0.84375 L 7.21875 -0.84375 L 6.40625 -2.953125 L 3.015625 -2.953125 L 2.25 -0.84375 L 3.71875 -0.84375 L 3.71875 0 Z M 3.28125 -3.703125 L 6.109375 -3.703125 L 4.65625 -7.671875 Z M 3.28125 -3.703125 "/></g></g></g><g fill="#98198e" fill-opacity="1"><g transform="translate(205.969773, 281.586486)"><g><path d="M 2.171875 0 L 2.171875 -0.84375 L 3.546875 -0.84375 L 3.546875 -7.984375 L 1.296875 -7.984375 L 1.296875 -5.25 L 0.203125 -5.25 L 0.203125 -8.8125 L 8.203125 -8.8125 L 8.203125 -5.25 L 7.109375 -5.25 L 7.109375 -7.984375 L 4.921875 -7.984375 L 4.921875 -0.84375 L 6.328125 -0.84375 L 6.328125 0 Z M 2.171875 0 "/></g></g></g><g fill="#98198e" fill-opacity="1"><g transform="translate(217.329973, 281.586486)"><g><path d="M 0.171875 0 L 0.171875 -0.84375 L 1.609375 -0.84375 L 1.609375 -7.984375 L 0.171875 -7.984375 L 0.171875 -8.8125 L 4.328125 -8.8125 L 4.328125 -7.984375 L 2.984375 -7.984375 L 2.984375 -0.84375 L 4.328125 -0.84375 L 4.328125 0 Z M 0.171875 0 "/></g></g></g><g fill="#98198e" fill-opacity="1"><g transform="translate(224.78783, 281.586486)"><g><path d="M 4.65625 0.15625 C 4.125 0.15625 3.628906 0.0703125 3.171875 -0.09375 C 2.710938 -0.269531 2.316406 -0.503906 1.984375 -0.796875 C 1.660156 -1.097656 1.382812 -1.441406 1.15625 -1.828125 C 0.925781 -2.222656 0.757812 -2.640625 0.65625 -3.078125 C 0.550781 -3.515625 0.5 -3.960938 0.5 -4.421875 C 0.5 -5.367188 0.71875 -6.226562 1.15625 -7 C 1.382812 -7.40625 1.660156 -7.753906 1.984375 -8.046875 C 2.316406 -8.335938 2.707031 -8.570312 3.15625 -8.75 C 3.625 -8.914062 4.125 -9 4.65625 -9 C 5.1875 -9 5.679688 -8.910156 6.140625 -8.734375 C 6.609375 -8.566406 7.007812 -8.332031 7.34375 -8.03125 C 7.65625 -7.738281 7.925781 -7.394531 8.15625 -7 C 8.382812 -6.613281 8.550781 -6.203125 8.65625 -5.765625 C 8.757812 -5.328125 8.8125 -4.878906 8.8125 -4.421875 C 8.8125 -3.460938 8.59375 -2.597656 8.15625 -1.828125 C 7.925781 -1.421875 7.644531 -1.070312 7.3125 -0.78125 C 6.988281 -0.5 6.609375 -0.273438 6.171875 -0.109375 C 5.703125 0.0664062 5.195312 0.15625 4.65625 0.15625 Z M 4.65625 -0.65625 C 5.070312 -0.65625 5.453125 -0.757812 5.796875 -0.96875 C 6.140625 -1.1875 6.421875 -1.472656 6.640625 -1.828125 C 6.859375 -2.179688 7.023438 -2.578125 7.140625 -3.015625 C 7.253906 -3.460938 7.3125 -3.925781 7.3125 -4.40625 C 7.3125 -4.789062 7.273438 -5.164062 7.203125 -5.53125 C 7.140625 -5.894531 7.03125 -6.234375 6.875 -6.546875 C 6.550781 -7.234375 6.125 -7.707031 5.59375 -7.96875 C 5.3125 -8.113281 5 -8.1875 4.65625 -8.1875 C 4.25 -8.1875 3.875 -8.078125 3.53125 -7.859375 C 3.1875 -7.648438 2.898438 -7.367188 2.671875 -7.015625 C 2.453125 -6.648438 2.285156 -6.242188 2.171875 -5.796875 C 2.054688 -5.359375 2 -4.90625 2 -4.4375 C 2 -3.625 2.144531 -2.90625 2.4375 -2.28125 C 2.59375 -1.945312 2.773438 -1.660156 2.984375 -1.421875 C 3.191406 -1.191406 3.4375 -1.007812 3.71875 -0.875 C 4.007812 -0.726562 4.320312 -0.65625 4.65625 -0.65625 Z M 4.65625 -0.65625 "/></g></g></g><g fill="#98198e" fill-opacity="1"><g transform="translate(237.050379, 281.586486)"><g><path d="M 0.1875 0 L 0.1875 -0.84375 L 1.609375 -0.84375 L 1.609375 -7.984375 L 0.1875 -7.984375 L 0.1875 -8.8125 L 3.359375 -8.8125 L 7.53125 -1.5625 L 7.53125 -7.984375 L 6.09375 -7.984375 L 6.09375 -8.8125 L 9.984375 -8.8125 L 9.984375 -7.984375 L 8.640625 -7.984375 L 8.640625 0 L 7.078125 0 L 2.71875 -7.578125 L 2.71875 -0.84375 L 4.0625 -0.84375 L 4.0625 0 Z M 0.1875 0 "/></g></g></g></svg>